<svg width="35" height="32" viewBox="0 0 35 32" fill="none" xmlns="http://www.w3.org/2000/svg">
<path d="M27.3054 8.62275H26.1269L23.6838 1.89701C23.4816 1.34242 23.1141 0.86321 22.631 0.523999C22.1479 0.184788 21.5723 0.00189934 20.982 0H18.6826C17.8922 0 17.2455 0.646706 17.2455 1.43713C17.2455 2.22754 17.8922 2.87425 18.6826 2.87425H20.982L23.0802 8.62275H16.1677L15.6503 7.18563H15.7796C16.5701 7.18563 17.2168 6.53892 17.2168 5.7485C17.2168 4.95808 16.5701 4.31138 15.7796 4.31138H11.497C10.7066 4.31138 10.0599 4.95808 10.0599 5.7485C10.0599 6.53892 10.7066 7.18563 11.497 7.18563H12.5748L15.1904 14.3713H14.2275C13.5952 11.1665 10.9078 8.79521 7.54491 8.63712C3.52096 8.43593 0 11.7844 0 15.8084C0 19.8323 3.16168 22.994 7.18563 22.994C10.721 22.994 13.5808 20.5653 14.2275 17.2455H20.2635C20.8958 20.4503 23.5832 22.8215 26.9461 22.9796C30.97 23.1665 34.491 19.8323 34.491 15.794C34.491 11.7844 31.3293 8.62275 27.3054 8.62275ZM8.62275 17.2455H11.2383C10.6347 19.0132 8.93892 20.2347 6.8982 20.1054C4.75688 19.976 2.97485 18.1653 2.87425 16.0096C2.77365 13.4946 4.6994 11.497 7.18563 11.497C9.097 11.497 10.6635 12.6898 11.2383 14.3713H8.62275C7.83233 14.3713 7.18563 15.018 7.18563 15.8084C7.18563 16.5988 7.83233 17.2455 8.62275 17.2455ZM20.2635 14.3713H18.2515L17.2024 11.497H21.5569C20.9245 12.3305 20.4647 13.2934 20.2635 14.3713ZM27.1329 20.1198C24.9197 20.0335 23.0515 18.1509 22.994 15.9233C22.9653 14.5437 23.5545 13.3365 24.503 12.5317L25.394 14.9748C25.6671 15.7221 26.4862 16.1102 27.2335 15.8371C27.9808 15.5641 28.3689 14.7449 28.0958 13.9976L27.1904 11.5114L27.2048 11.497C27.781 11.4774 28.3552 11.5747 28.8927 11.7831C29.4302 11.9915 29.92 12.3067 30.3323 12.7097C30.7446 13.1126 31.071 13.5949 31.2918 14.1275C31.5126 14.6601 31.6231 15.2319 31.6168 15.8084C31.6168 18.2802 29.6335 20.206 27.1329 20.1198ZM15.8084 27.3054H10.0599L18.6826 31.6168V28.7425H24.4311L15.8084 24.4311V27.3054Z" fill="url(#paint0_linear_20_246)"/>
<defs>
<linearGradient id="paint0_linear_20_246" x1="17.2455" y1="0" x2="17.2455" y2="31.6168" gradientUnits="userSpaceOnUse">
<stop stop-color="#FFBF00"/>
<stop offset="1" stop-color="#F2AE24"/>
</linearGradient>
</defs>
</svg>
