<svg width="29" height="24" viewBox="0 0 29 24" fill="none" xmlns="http://www.w3.org/2000/svg">
<path d="M25.0935 8.65047C24.9518 8.85998 24.8678 9.10318 24.8501 9.35552C24.8325 9.60786 24.8817 9.86039 24.9929 10.0876C25.3493 10.9197 25.6008 11.7935 25.7402 12.6888C26.1102 15.0028 25.7642 17.3745 24.7486 19.4864C24.6253 19.718 24.4409 19.9115 24.2154 20.0458C23.9899 20.18 23.732 20.25 23.4696 20.2481H5.28994C5.02604 20.2486 4.76709 20.1765 4.54148 20.0396C4.31586 19.9027 4.13229 19.7063 4.0109 19.472C3.09096 17.6058 2.6947 15.525 2.86434 13.4513C3.03398 11.3776 3.76317 9.38881 4.97418 7.69694C6.18519 6.00507 7.83261 4.67353 9.74084 3.84429C11.6491 3.01504 13.7465 2.71916 15.8097 2.9882C16.8536 3.1109 17.8747 3.38189 18.842 3.79299C19.0692 3.90418 19.3218 3.95344 19.5741 3.93577C19.8264 3.91811 20.0697 3.83416 20.2792 3.69239C20.4974 3.5486 20.6723 3.348 20.7851 3.11219C20.8978 2.87638 20.9441 2.61429 20.919 2.35412C20.8939 2.09395 20.7983 1.84557 20.6425 1.63569C20.4867 1.42582 20.2766 1.26241 20.0348 1.16305C17.2586 -0.0273804 14.1778 -0.31275 11.2302 0.347481C8.2825 1.00771 5.61781 2.57997 3.61462 4.84092C1.61143 7.10186 0.371596 9.93654 0.0712353 12.9423C-0.229125 15.948 0.425261 18.972 1.94144 21.5846C2.19223 22.019 2.55235 22.3802 2.98599 22.6323C3.41963 22.8845 3.9117 23.0187 4.4133 23.0217H24.3175C24.824 23.0237 25.322 22.8919 25.7611 22.6395C26.2002 22.3871 26.5648 22.0232 26.8181 21.5846C27.9281 19.6609 28.5771 17.5062 28.7143 15.2894C28.8514 13.0727 28.4729 10.8544 27.6085 8.80856C27.499 8.5754 27.3289 8.37595 27.1159 8.23108C26.9029 8.08622 26.6549 8.00126 26.3978 7.9851C26.1407 7.96894 25.884 8.02217 25.6546 8.13923C25.4251 8.25628 25.2313 8.43286 25.0935 8.65047Z" fill="url(#paint0_linear_20_286)"/>
<path d="M12.3462 12.3727C11.8069 12.912 11.5039 13.6435 11.5039 14.4062C11.5039 14.7838 11.5783 15.1578 11.7228 15.5067C11.8673 15.8556 12.0792 16.1727 12.3462 16.4397C12.6133 16.7068 12.9303 16.9186 13.2792 17.0631C13.6281 17.2076 14.0021 17.282 14.3798 17.282C15.1425 17.282 15.874 16.979 16.4133 16.4397L24.5474 4.23853L12.3462 12.3727V12.3727Z" fill="url(#paint1_linear_20_286)"/>
<defs>
<linearGradient id="paint0_linear_20_286" x1="14.3708" y1="0" x2="14.3708" y2="23.0217" gradientUnits="userSpaceOnUse">
<stop stop-color="#FFBF00"/>
<stop offset="1" stop-color="#F2AE24"/>
</linearGradient>
<linearGradient id="paint1_linear_20_286" x1="18.0257" y1="4.23853" x2="18.0257" y2="17.282" gradientUnits="userSpaceOnUse">
<stop stop-color="#FFBF00"/>
<stop offset="1" stop-color="#F2AE24"/>
</linearGradient>
</defs>
</svg>
