<svg width="32" height="32" viewBox="0 0 32 32" fill="none" xmlns="http://www.w3.org/2000/svg">
<path d="M15.8084 10.0599C12.6323 10.0599 10.0599 12.6323 10.0599 15.8084C10.0599 18.9844 12.6323 21.5569 15.8084 21.5569C18.9844 21.5569 21.5569 18.9844 21.5569 15.8084C21.5569 12.6323 18.9844 10.0599 15.8084 10.0599ZM28.6563 14.3713C28.3308 11.4569 27.0239 8.73993 24.9504 6.66638C22.8768 4.59284 20.1598 3.286 17.2455 2.96048V1.43713C17.2455 0.646706 16.5988 0 15.8084 0C15.018 0 14.3713 0.646706 14.3713 1.43713V2.96048C11.4569 3.286 8.73993 4.59284 6.66638 6.66638C4.59284 8.73993 3.286 11.4569 2.96048 14.3713H1.43713C0.646706 14.3713 0 15.018 0 15.8084C0 16.5988 0.646706 17.2455 1.43713 17.2455H2.96048C3.286 20.1598 4.59284 22.8768 6.66638 24.9504C8.73993 27.0239 11.4569 28.3308 14.3713 28.6563V30.1796C14.3713 30.97 15.018 31.6168 15.8084 31.6168C16.5988 31.6168 17.2455 30.97 17.2455 30.1796V28.6563C20.1598 28.3308 22.8768 27.0239 24.9504 24.9504C27.0239 22.8768 28.3308 20.1598 28.6563 17.2455H30.1796C30.97 17.2455 31.6168 16.5988 31.6168 15.8084C31.6168 15.018 30.97 14.3713 30.1796 14.3713H28.6563V14.3713ZM15.8084 25.8683C10.2467 25.8683 5.7485 21.3701 5.7485 15.8084C5.7485 10.2467 10.2467 5.7485 15.8084 5.7485C21.3701 5.7485 25.8683 10.2467 25.8683 15.8084C25.8683 21.3701 21.3701 25.8683 15.8084 25.8683Z" fill="url(#paint0_linear_20_281)"/>
<defs>
<linearGradient id="paint0_linear_20_281" x1="15.8084" y1="0" x2="15.8084" y2="31.6168" gradientUnits="userSpaceOnUse">
<stop stop-color="#FFBF00"/>
<stop offset="1" stop-color="#F2AE24"/>
</linearGradient>
</defs>
</svg>
