<svg width="29" height="24" viewBox="0 0 29 24" fill="none" xmlns="http://www.w3.org/2000/svg">
<path d="M21.5569 19.1569C19.6168 19.1569 18.3952 19.7605 17.3174 20.3066C16.3832 20.7808 15.6216 21.1689 14.3713 21.1689C13.0778 21.1689 12.3593 20.8096 11.4251 20.3066C10.3473 19.7605 9.16886 19.1569 7.18563 19.1569C5.20239 19.1569 4.02395 19.7605 2.94611 20.3066C2.32814 20.6227 1.78204 20.8958 1.12096 21.0539C0.474251 21.1976 0 21.715 0 22.3617V22.5054C0 23.3677 0.80479 23.9856 1.63832 23.8132C2.7018 23.5976 3.50659 23.1952 4.23952 22.8215C5.17365 22.3473 5.92096 21.9593 7.18563 21.9593C8.4503 21.9593 9.1976 22.3186 10.1317 22.8215C11.2096 23.3677 12.388 23.9712 14.3713 23.9712C16.3545 23.9712 17.5329 23.3677 18.6108 22.8215C19.5449 22.3473 20.3066 21.9593 21.5569 21.9593C22.8503 21.9593 23.5689 22.3186 24.503 22.8215C25.2503 23.1952 26.0551 23.612 27.1329 23.8275C27.3271 23.8654 27.5272 23.8602 27.7191 23.8123C27.911 23.7644 28.0901 23.6749 28.2436 23.5501C28.3971 23.4254 28.5214 23.2684 28.6076 23.0904C28.6938 22.9124 28.7399 22.7175 28.7425 22.5198V22.3904C28.7425 21.7293 28.2539 21.212 27.6072 21.0683C26.9461 20.9245 26.4144 20.6515 25.7964 20.3209C24.7186 19.7605 23.497 19.1569 21.5569 19.1569V19.1569ZM21.5569 12.7617C19.6168 12.7617 18.3952 13.3796 17.3174 13.9114C16.3832 14.3713 15.6216 14.7736 14.3713 14.7736C13.0778 14.7736 12.3593 14.4144 11.4251 13.9114C10.3473 13.3653 9.16886 12.7617 7.18563 12.7617C5.20239 12.7617 4.02395 13.3796 2.94611 13.9114C2.32814 14.2132 1.78204 14.5006 1.10659 14.6587C0.474251 14.8024 0 15.3198 0 15.9665V16.1102C8.21285e-05 16.3088 0.0444394 16.5049 0.129845 16.6843C0.215251 16.8636 0.339557 17.0217 0.493723 17.1469C0.647888 17.2722 0.828035 17.3615 1.02106 17.4084C1.21408 17.4553 1.41513 17.4585 1.60958 17.418C2.68742 17.2024 3.49221 16.7856 4.23952 16.4263C5.17365 15.9233 5.89221 15.5641 7.18563 15.5641C8.47904 15.5641 9.1976 15.9233 10.1317 16.4263C11.2096 16.9724 12.388 17.576 14.3713 17.576C16.3545 17.576 17.5329 16.9581 18.6108 16.4263C19.5449 15.9233 20.2635 15.5641 21.5569 15.5641C22.8503 15.5641 23.5689 15.9233 24.503 16.4263C25.2503 16.8 26.0551 17.2168 27.1329 17.4323C27.3283 17.4704 27.5296 17.4649 27.7225 17.4162C27.9155 17.3674 28.0953 17.2766 28.2491 17.1503C28.4029 17.024 28.5268 16.8652 28.6121 16.6854C28.6974 16.5056 28.742 16.3092 28.7425 16.1102V15.9808C28.7425 15.3198 28.2539 14.8024 27.6072 14.6587C26.9461 14.515 26.4144 14.2419 25.7964 13.9114C24.7186 13.3653 23.497 12.7617 21.5569 12.7617V12.7617ZM25.7964 1.1497C24.7186 0.603593 23.5257 0 21.5569 0C19.588 0 18.3952 0.603593 17.3174 1.1497C16.3832 1.60958 15.6216 2.01198 14.3713 2.01198C13.0778 2.01198 12.3593 1.65269 11.4251 1.1497C10.3473 0.617964 9.16886 0 7.18563 0C5.20239 0 4.02395 0.603593 2.94611 1.1497C2.32814 1.46587 1.78204 1.73892 1.12096 1.89701C0.474251 2.04072 0 2.55808 0 3.20479V3.30539C0 4.16766 0.776047 4.8 1.60958 4.62754C2.68742 4.41197 3.49221 3.99521 4.23952 3.63593C5.17365 3.16168 5.92096 2.77365 7.18563 2.77365C8.4503 2.77365 9.1976 3.13293 10.1317 3.63593C11.2096 4.18203 12.388 4.78563 14.3713 4.78563C16.3545 4.78563 17.5329 4.16766 18.6108 3.63593C19.5449 3.17605 20.3066 2.77365 21.5569 2.77365C22.8503 2.77365 23.5689 3.13293 24.503 3.63593C25.2503 4.00958 26.0551 4.42635 27.1329 4.64191C27.3283 4.68002 27.5296 4.67451 27.7225 4.62575C27.9155 4.577 28.0953 4.48621 28.2491 4.35989C28.4029 4.23357 28.5268 4.07483 28.6121 3.89502C28.6974 3.71521 28.742 3.51877 28.7425 3.31976V3.19042C28.7425 2.52934 28.2539 2.01198 27.6072 1.86826C26.9461 1.72455 26.4144 1.46587 25.7964 1.1497V1.1497ZM21.5569 6.36647C19.6168 6.36647 18.3952 6.98443 17.3174 7.51617C16.3832 8.01916 15.6647 8.37844 14.3713 8.37844C13.0778 8.37844 12.3593 8.01916 11.4251 7.51617C10.3473 6.97006 9.16886 6.36647 7.18563 6.36647C5.20239 6.36647 4.02395 6.98443 2.94611 7.51617C2.32814 7.8467 1.79641 8.11976 1.13533 8.26347C0.488623 8.40718 0 8.92455 0 9.58563V9.71497C8.21285e-05 9.9136 0.0444394 10.1097 0.129845 10.2891C0.215251 10.4684 0.339557 10.6265 0.493723 10.7517C0.647888 10.877 0.828035 10.9663 1.02106 11.0132C1.21408 11.0601 1.41513 11.0633 1.60958 11.0228C2.68742 10.8072 3.49221 10.3904 4.23952 10.0311C5.17365 9.57125 5.93533 9.16886 7.18563 9.16886C8.43592 9.16886 9.1976 9.52814 10.1317 10.0311C11.2096 10.5772 12.388 11.1808 14.3713 11.1808C16.3545 11.1808 17.5329 10.5629 18.6108 10.0311C19.5449 9.57125 20.3066 9.16886 21.5569 9.16886C22.8503 9.16886 23.5689 9.52814 24.503 10.0311C25.2503 10.4048 26.0551 10.8216 27.1329 11.0371C27.3271 11.075 27.5272 11.0698 27.7191 11.0219C27.911 10.9739 28.0901 10.8844 28.2436 10.7597C28.3971 10.635 28.5214 10.478 28.6076 10.3C28.6938 10.1219 28.7399 9.92714 28.7425 9.72934V9.6C28.7425 8.93892 28.2539 8.42155 27.6072 8.27784C26.9461 8.13413 26.4144 7.86107 25.7964 7.53054C24.7186 6.97006 23.497 6.36647 21.5569 6.36647V6.36647Z" fill="url(#paint0_linear_20_263)"/>
<defs>
<linearGradient id="paint0_linear_20_263" x1="14.3713" y1="0" x2="14.3713" y2="23.9712" gradientUnits="userSpaceOnUse">
<stop stop-color="#FFBF00"/>
<stop offset="1" stop-color="#F2AE24"/>
</linearGradient>
</defs>
</svg>
