<svg width="23" height="31" viewBox="0 0 23 31" fill="none" xmlns="http://www.w3.org/2000/svg">
<path d="M20.1198 10.0599H18.6826V7.18563C18.6826 3.21916 15.4635 0 11.497 0C7.53054 0 4.31138 3.21916 4.31138 7.18563V10.0599H2.87425C1.29341 10.0599 0 11.3533 0 12.9341V27.3054C0 28.8862 1.29341 30.1796 2.87425 30.1796H20.1198C21.7006 30.1796 22.994 28.8862 22.994 27.3054V12.9341C22.994 11.3533 21.7006 10.0599 20.1198 10.0599ZM11.497 22.994C9.91616 22.994 8.62275 21.7006 8.62275 20.1198C8.62275 18.5389 9.91616 17.2455 11.497 17.2455C13.0778 17.2455 14.3713 18.5389 14.3713 20.1198C14.3713 21.7006 13.0778 22.994 11.497 22.994ZM7.18563 10.0599V7.18563C7.18563 4.8 9.11137 2.87425 11.497 2.87425C13.8826 2.87425 15.8084 4.8 15.8084 7.18563V10.0599H7.18563Z" fill="url(#paint0_linear_20_282)"/>
<defs>
<linearGradient id="paint0_linear_20_282" x1="11.497" y1="0" x2="11.497" y2="30.1796" gradientUnits="userSpaceOnUse">
<stop stop-color="#FFBF00"/>
<stop offset="1" stop-color="#F2AE24"/>
</linearGradient>
</defs>
</svg>
