<svg width="25" height="14" viewBox="0 0 25 14" fill="none" xmlns="http://www.w3.org/2000/svg">
<path fill-rule="evenodd" clip-rule="evenodd" d="M14.572 13.5821C14.8935 14.0312 15.5181 14.1347 15.9672 13.8132L24.5821 7.64652C24.8481 7.45608 25.0042 7.14752 24.9999 6.82035C24.9957 6.49319 24.8316 6.1888 24.5607 6.00535L15.9458 0.172012C15.4885 -0.137643 14.8668 -0.0179453 14.5571 0.439364C14.2474 0.896674 14.3671 1.51842 14.8245 1.82808L20.7396 5.83338H1C0.447715 5.83338 0 6.28109 0 6.83338C0 7.38566 0.447715 7.83338 1 7.83338H20.885L14.8031 12.1869C14.354 12.5084 14.2505 13.133 14.572 13.5821Z" fill="#332200"/>
</svg>
