<svg width="23" height="23" viewBox="0 0 23 23" fill="none" xmlns="http://www.w3.org/2000/svg">
<path d="M2.9463 5.76558C1.06479 7.6474 0.00540743 10.198 2.06435e-05 12.859C-0.00536615 15.5201 1.04368 18.075 2.91756 19.9644C5.03013 15.0782 8.7954 10.9967 13.4948 8.56797C9.43861 12.0001 6.70053 16.7346 5.74869 21.962C9.48522 23.7296 14.084 23.0829 17.1738 19.9931C21.4708 15.6961 22.678 3.98354 22.9367 0.764384C22.9457 0.662097 22.9322 0.559078 22.8971 0.462578C22.862 0.366077 22.8062 0.27844 22.7336 0.205832C22.661 0.133224 22.5733 0.0774094 22.4768 0.0423159C22.3803 0.00722239 22.2773 -0.00629735 22.175 0.0027077C18.9559 0.26139 7.2433 1.46858 2.9463 5.76558V5.76558Z" fill="url(#paint0_linear_20_268)"/>
<defs>
<linearGradient id="paint0_linear_20_268" x1="11.4697" y1="0" x2="11.4697" y2="22.9312" gradientUnits="userSpaceOnUse">
<stop stop-color="#FFBF00"/>
<stop offset="1" stop-color="#F2AE24"/>
</linearGradient>
</defs>
</svg>
